<svg
    style="fill-rule:evenodd;clip-rule:evenodd;stroke-linejoin:round;stroke-miterlimit:1.41421"
    version="1.1"
    viewBox="0 0 330 71"
    xmlns="http://www.w3.org/2000/svg"
>
    <defs>
        <style type="text/css">
            @import url('https://fonts.googleapis.com/css?family=Nunito:400');
            text {
                font-family: "Nunito", sans-serif;
            }
        </style>
    </defs>
    <text
        fill="#fff"
        font-family="Nunito"
        font-size="26.923px"
        font-weight="500"
        x="128.126px"
        y="44.219px"
    >Bridge Loading</text>
    <path
        d="M25.076,44.801l0,0.001l-1.563,0l0,4.625l-0.003,0l0.003,0.015c0,0.854 -0.713,1.547 -1.593,1.547l-12.625,0c-0.88,0 -1.594,-0.693 -1.594,-1.547l0.003,-0.015l-0.003,0l0,-27.876l0.003,0l-0.003,-0.015c0,-0.854 0.714,-1.547 1.594,-1.547l15.781,0l0,0.001c6.974,0.008 12.625,5.559 12.625,12.405c0,6.847 -5.651,12.397 -12.625,12.406Zm31.125,-24.812c8.56,0 15.5,6.94 15.5,15.5c0,8.56 -6.94,15.5 -15.5,15.5c-8.56,0 -15.5,-6.94 -15.5,-15.5c0,-8.56 6.94,-15.5 15.5,-15.5Zm50.506,30.028c0,0 0,0.001 0,0.002c0,0.523 -0.43,0.954 -0.954,0.955l-35.039,0c-0.026,0.002 -0.049,0.015 -0.076,0.015c-0.518,-0.005 -0.941,-0.435 -0.937,-0.953c0.004,-0.202 0.073,-0.398 0.197,-0.557l-0.018,-0.035l17.364,-28.683l0.039,0c0.084,-0.439 0.469,-0.76 0.915,-0.764c0.459,0 0.825,0.331 0.916,0.764l0.038,0l17.555,28.874l-0.06,0.084c0.036,0.095 0.057,0.196 0.06,0.298Z"
        fill="#fff"
    />
</svg>
