<svg xmlns="http://www.w3.org/2000/svg" width="25" height="39">
    <path fill="#352D59" fill-rule="evenodd" d="M24.987 19.514l-.004.02c.012.467-.173.909-.516 1.223l-10.56 17.45a1.622 1.622 0 0 1-.535.521c-.042.03-.08.062-.126.088-.043.023-.092.023-.136.042a1.455 1.455 0 0 1-.61.124 1.455 1.455 0 0 1-.61-.124c-.044-.019-.093-.018-.136-.042-.046-.026-.084-.059-.126-.088a1.622 1.622 0 0 1-.535-.521L.533 20.757a1.592 1.592 0 0 1-.516-1.223l-.004-.02c.001-.007-.003-.014-.003-.021l.003-.018c.003-.056.008-.11.017-.166.028-.402.195-.777.491-1.055L11.093.786c.136-.225.327-.39.537-.523.042-.029.079-.062.124-.087.043-.023.091-.022.135-.041.105-.043.207-.078.318-.099a1.596 1.596 0 0 1 .904.099c.044.019.092.018.135.041.045.025.082.058.124.087.209.133.401.298.537.523l10.572 17.468c.296.278.462.653.491 1.055.009.056.014.109.017.166.001.005.003.011.003.017 0 .008-.004.015-.003.022zM12.5 34.636l6.202-10.247-5.242 3.243a1.394 1.394 0 0 1-.729.328c-.078.015-.153.015-.231.017-.078-.002-.153-.002-.231-.017a1.394 1.394 0 0 1-.729-.328l-5.242-3.243L12.5 34.636zm0-30.28l-6.21 10.26 5.25-3.248c.211-.186.462-.288.729-.328.078-.015.153-.015.231-.017.078.002.153.002.231.017.267.04.518.142.729.328l5.25 3.248-6.21-10.26zm0 10.065L4.289 19.5l8.211 5.079 8.211-5.079-8.211-5.079z"/>
</svg>
