<svg xmlns="http://www.w3.org/2000/svg" width="224" height="41">
    <path fill="#20F88D" fill-rule="evenodd" d="M25.031 21.503L14.323 39.627c-.171.289-.426.484-.706.632l-.007.005-.012.004a1.76 1.76 0 0 1-.848.203 1.754 1.754 0 0 1-.848-.203l-.012-.004-.007-.005c-.28-.148-.535-.343-.706-.632L.469 21.503a1.805 1.805 0 0 1-.461-1.365c.017-.419.175-.825.461-1.141L11.177.873c.171-.289.426-.484.706-.632l.007-.005.012-.004a1.76 1.76 0 0 1 .848-.203 1.754 1.754 0 0 1 .848.203l.012.004.007.005c.28.148.535.343.706.632l10.708 18.124c.286.316.444.722.461 1.141.043.497-.124.993-.461 1.365zM12.75 35.329l5.904-9.993-4.999 2.923c-.105.061-.219.074-.329.112-.072.026-.139.056-.214.073a1.692 1.692 0 0 1-.362.025 1.692 1.692 0 0 1-.362-.025c-.075-.017-.142-.047-.214-.073-.11-.038-.224-.051-.329-.112l-4.999-2.923 5.904 9.993zm0-30.158l-5.904 9.993 4.999-2.923c.105-.061.219-.074.329-.112.072-.026.139-.056.214-.073.122-.024.239-.027.362-.025.123-.002.24.001.362.025.075.017.142.047.214.073.11.038.224.051.329.112l4.999 2.923-5.904-9.993zm0 10.686L5.236 20.25l7.514 4.393 7.514-4.393-7.514-4.393z"/>
    <path fill="#FFF" fill-rule="evenodd" d="M206.884 20.915c-.075.084-.196.126-.364.126h-4.508c.084 1.606.845 2.408 2.282 2.408.364 0 .677-.049.938-.147.261-.098.541-.231.84-.399.243-.14.406-.21.49-.21.103 0 .191.042.266.126a.466.466 0 0 1 .112.322c0 .234-.163.448-.49.644a4.243 4.243 0 0 1-1.064.441 4.288 4.288 0 0 1-1.092.147c-1.055 0-1.888-.312-2.499-.938-.611-.625-.917-1.488-.917-2.59 0-.7.135-1.318.406-1.855a3.038 3.038 0 0 1 1.141-1.253 3.157 3.157 0 0 1 1.673-.448c.887 0 1.591.29 2.114.868.523.579.784 1.363.784 2.352 0 .187-.037.322-.112.406zm-1.4-2.191c-.327-.368-.784-.553-1.372-.553-.597 0-1.076.187-1.435.56-.359.374-.572.901-.637 1.582h3.962c-.019-.69-.191-1.22-.518-1.589zm-9.408 8.169c-.999 0-1.829-.196-2.492-.588-.336-.186-.504-.401-.504-.644 0-.13.035-.238.105-.322a.339.339 0 0 1 .273-.126c.093 0 .261.066.504.196.327.168.649.304.966.406.317.103.695.154 1.134.154.663 0 1.162-.175 1.498-.525.336-.35.504-.861.504-1.533v-1.204a2.132 2.132 0 0 1-.903 1.008c-.406.234-.884.35-1.435.35-.597 0-1.127-.14-1.589-.42a2.838 2.838 0 0 1-1.078-1.19c-.257-.513-.385-1.106-.385-1.778 0-.672.128-1.264.385-1.778.257-.513.616-.91 1.078-1.19.462-.28.992-.42 1.589-.42.541 0 1.013.117 1.414.35.401.234.705.565.91.994v-.756c0-.168.049-.303.147-.406a.547.547 0 0 1 .413-.154c.177 0 .317.052.42.154a.548.548 0 0 1 .154.406v5.936c0 1.018-.261 1.785-.784 2.303s-1.297.777-2.324.777zm1.421-8.001c-.369-.434-.884-.651-1.547-.651-.663 0-1.183.217-1.561.651-.378.434-.567 1.029-.567 1.785 0 .766.189 1.365.567 1.799.378.434.898.651 1.561.651.653 0 1.167-.217 1.54-.651.373-.434.56-1.033.56-1.799 0-.756-.184-1.351-.553-1.785zm-7.091 5.453c-.177 0-.315-.051-.413-.154a.562.562 0 0 1-.147-.406v-.756a2.24 2.24 0 0 1-.903.994c-.396.234-.861.35-1.393.35-.597 0-1.124-.149-1.582-.448a2.953 2.953 0 0 1-1.064-1.253c-.252-.536-.378-1.159-.378-1.869 0-.7.126-1.316.378-1.848a2.877 2.877 0 0 1 1.064-1.232c.458-.289.985-.434 1.582-.434.532 0 .997.117 1.393.35.397.234.698.565.903.994v-3.752a.54.54 0 0 1 .147-.399c.098-.098.236-.147.413-.147.178 0 .318.052.42.154a.531.531 0 0 1 .154.392v8.904a.547.547 0 0 1-.154.406.564.564 0 0 1-.42.154zm-1.099-5.432c-.359-.448-.87-.672-1.533-.672-.662 0-1.178.224-1.547.672-.368.448-.553 1.078-.553 1.89 0 .831.185 1.477.553 1.939.369.462.885.693 1.547.693.663 0 1.174-.226 1.533-.679.36-.452.539-1.094.539-1.925 0-.83-.179-1.47-.539-1.918zm-7.049-3.066a.767.767 0 0 1-.546-.196.674.674 0 0 1-.21-.518.66.66 0 0 1 .21-.504.771.771 0 0 1 .546-.196c.224 0 .406.066.546.196a.66.66 0 0 1 .21.504c0 .215-.07.388-.21.518a.767.767 0 0 1-.546.196zm-2.113 2.464l-.42.042c-.626.056-1.09.278-1.393.665a2.148 2.148 0 0 0-.455 1.365v3.402c0 .187-.052.327-.154.42a.579.579 0 0 1-.407.14.586.586 0 0 1-.412-.147c-.108-.098-.161-.235-.161-.413v-5.908a.52.52 0 0 1 .168-.413.594.594 0 0 1 .405-.147c.15 0 .276.049.379.147a.528.528 0 0 1 .154.399v.784c.196-.41.473-.723.833-.938.359-.214.772-.34 1.239-.378l.196-.014c.391-.028.587.131.587.476 0 .15-.041.269-.125.357-.084.089-.229.143-.434.161zm-5.278 3.276c0 .868-.285 1.533-.854 1.995-.57.462-1.377.693-2.422.693h-3.528a.589.589 0 0 1-.427-.154.533.533 0 0 1-.161-.406v-8.75c0-.168.053-.303.161-.406a.593.593 0 0 1 .427-.154h3.374c1.017 0 1.806.224 2.366.672.56.448.84 1.083.84 1.904 0 .532-.138.99-.413 1.372-.276.383-.661.668-1.155.854.569.15 1.01.43 1.323.84.312.411.469.924.469 1.54zm-1.358-4.55c0-1.12-.747-1.68-2.24-1.68h-2.66v3.43h2.66c.737 0 1.295-.149 1.673-.448.378-.298.567-.732.567-1.302zm-2.03 2.702h-2.87v3.584h2.87c.774 0 1.346-.142 1.715-.427.368-.284.553-.73.553-1.337 0-1.213-.756-1.82-2.268-1.82zm-6.804 4.606a.581.581 0 0 1-.42-.147c-.103-.098-.154-.235-.154-.413v-3.724c0-.634-.124-1.096-.371-1.386-.248-.289-.642-.434-1.183-.434-.626 0-1.125.192-1.498.574-.374.383-.56.901-.56 1.554v3.416c0 .178-.049.315-.147.413-.098.098-.236.147-.413.147a.581.581 0 0 1-.42-.147c-.103-.098-.154-.235-.154-.413v-5.908c0-.168.051-.303.154-.406a.568.568 0 0 1 .42-.154c.168 0 .301.052.399.154a.546.546 0 0 1 .147.392v.714c.224-.42.536-.739.938-.959a2.815 2.815 0 0 1 1.372-.329c1.633 0 2.45.901 2.45 2.702v3.794c0 .178-.049.315-.147.413-.098.098-.236.147-.413.147zm-7.462-3.304h-4.508c.084 1.606.844 2.408 2.282 2.408.364 0 .676-.049.938-.147.261-.098.541-.231.84-.399.242-.14.406-.21.49-.21.102 0 .191.042.266.126a.471.471 0 0 1 .112.322c0 .234-.164.448-.49.644a4.243 4.243 0 0 1-1.064.441 4.3 4.3 0 0 1-1.092.147c-1.055 0-1.888-.312-2.499-.938-.612-.625-.917-1.488-.917-2.59 0-.7.135-1.318.406-1.855a3.03 3.03 0 0 1 1.141-1.253 3.154 3.154 0 0 1 1.673-.448c.886 0 1.591.29 2.114.868.522.579.784 1.363.784 2.352 0 .187-.038.322-.112.406-.075.084-.196.126-.364.126zm-1.036-2.317c-.327-.368-.784-.553-1.372-.553-.598 0-1.076.187-1.435.56-.36.374-.572.901-.637 1.582h3.962c-.019-.69-.192-1.22-.518-1.589zm-5.908 5.621c-.122 0-.248-.056-.378-.168l-3.654-3.15v2.758a.531.531 0 0 1-.161.413.572.572 0 0 1-.399.147.588.588 0 0 1-.413-.147c-.108-.098-.161-.235-.161-.413v-8.89c0-.177.053-.315.161-.413a.588.588 0 0 1 .413-.147c.158 0 .291.049.399.147a.533.533 0 0 1 .161.413v5.684l3.346-3.066a.522.522 0 0 1 .378-.168.5.5 0 0 1 .364.154.5.5 0 0 1 .154.364.56.56 0 0 1-.196.42l-2.758 2.464 3.024 2.632c.149.14.224.29.224.448 0 .14-.049.262-.147.364a.474.474 0 0 1-.357.154zm-8.4-.406c-.495.29-1.064.434-1.708.434-.644 0-1.211-.144-1.701-.434a2.888 2.888 0 0 1-1.134-1.239c-.266-.536-.399-1.159-.399-1.869 0-.709.133-1.332.399-1.869a2.9 2.9 0 0 1 1.134-1.239c.49-.289 1.057-.434 1.701-.434.644 0 1.213.145 1.708.434.494.29.875.703 1.141 1.239.266.537.399 1.16.399 1.869 0 .71-.133 1.333-.399 1.869a2.88 2.88 0 0 1-1.141 1.239zm-.168-5.033c-.364-.452-.878-.679-1.54-.679-.663 0-1.176.227-1.54.679-.364.453-.546 1.095-.546 1.925 0 .84.179 1.484.539 1.932.359.448.875.672 1.547.672.672 0 1.187-.221 1.547-.665.359-.443.539-1.089.539-1.939 0-.83-.182-1.472-.546-1.925zm-4.956-3.521h-3.01v8.372c0 .178-.052.32-.154.427a.552.552 0 0 1-.42.161.573.573 0 0 1-.427-.161.573.573 0 0 1-.161-.427v-8.372h-3.01c-.168 0-.299-.042-.392-.126-.094-.084-.14-.205-.14-.364 0-.158.046-.28.14-.364.093-.084.224-.126.392-.126h7.182c.168 0 .298.042.392.126.093.084.14.206.14.364 0 .159-.047.28-.14.364-.094.084-.224.126-.392.126zm-15.428 8.022c.494 0 .938-.074 1.33-.224.392-.149.826-.41 1.302-.784.158-.102.294-.154.406-.154.102 0 .191.047.266.14.074.094.112.21.112.35 0 .187-.075.35-.224.49a4.285 4.285 0 0 1-1.449.861 5.167 5.167 0 0 1-1.771.301c-.934 0-1.741-.203-2.422-.609-.682-.406-1.207-.989-1.575-1.75-.369-.76-.553-1.659-.553-2.695 0-1.026.184-1.92.553-2.681.368-.76.893-1.344 1.575-1.75.681-.406 1.488-.609 2.422-.609.625 0 1.215.101 1.771.301a4.317 4.317 0 0 1 1.449.861c.149.14.224.304.224.49a.553.553 0 0 1-.112.343c-.075.098-.164.147-.266.147-.112 0-.248-.051-.406-.154-.476-.373-.908-.634-1.295-.784a3.71 3.71 0 0 0-1.337-.224c-1.083 0-1.916.353-2.499 1.057-.584.705-.875 1.706-.875 3.003 0 1.307.291 2.313.875 3.017.583.705 1.416 1.057 2.499 1.057zm-5.418-8.022h-3.01v8.372c0 .178-.052.32-.154.427a.552.552 0 0 1-.42.161.573.573 0 0 1-.427-.161.573.573 0 0 1-.161-.427v-8.372h-3.01c-.168 0-.299-.042-.392-.126-.094-.084-.14-.205-.14-.364 0-.158.046-.28.14-.364.093-.084.224-.126.392-.126h7.182c.168 0 .298.042.392.126.093.084.14.206.14.364 0 .159-.047.28-.14.364-.094.084-.224.126-.392.126zm-8.708 7.938c.168 0 .299.04.392.119.093.08.14.199.14.357 0 .15-.047.266-.14.35-.093.084-.224.126-.392.126h-5.236a.59.59 0 0 1-.427-.154.536.536 0 0 1-.161-.406v-8.75c0-.168.054-.303.161-.406a.595.595 0 0 1 .427-.154h5.236c.168 0 .299.042.392.126.093.084.14.201.14.35 0 .15-.047.266-.14.35-.093.084-.224.126-.392.126h-4.69v3.43h4.41c.168 0 .299.042.392.126.093.084.14.201.14.35 0 .15-.047.266-.14.35-.093.084-.224.126-.392.126h-4.41v3.584h4.69zm-10.78.63a.57.57 0 0 1-.238.301.698.698 0 0 1-.378.105.673.673 0 0 1-.364-.105.57.57 0 0 1-.238-.301l-2.744-7.756-2.772 7.756a.57.57 0 0 1-.238.301.673.673 0 0 1-.364.105.673.673 0 0 1-.364-.105.57.57 0 0 1-.238-.301l-3.178-8.918a.594.594 0 0 1-.042-.21c0-.149.058-.27.175-.364a.624.624 0 0 1 .714-.049.47.47 0 0 1 .203.273l2.758 7.952 2.8-7.868a.593.593 0 0 1 .224-.315.586.586 0 0 1 .336-.105c.121 0 .233.038.336.112a.632.632 0 0 1 .224.322l2.758 7.882 2.786-7.98a.482.482 0 0 1 .196-.273.558.558 0 0 1 .308-.091c.149 0 .278.045.385.133a.441.441 0 0 1 .161.357c0 .066-.014.14-.042.224l-3.164 8.918zm-17.472-.014c-.495.29-1.064.434-1.708.434-.644 0-1.211-.144-1.701-.434a2.888 2.888 0 0 1-1.134-1.239c-.266-.536-.399-1.159-.399-1.869 0-.709.133-1.332.399-1.869a2.9 2.9 0 0 1 1.134-1.239c.49-.289 1.057-.434 1.701-.434.644 0 1.213.145 1.708.434.495.29.875.703 1.141 1.239.266.537.399 1.16.399 1.869 0 .71-.133 1.333-.399 1.869-.266.537-.646.95-1.141 1.239zm-.168-5.033c-.364-.452-.877-.679-1.54-.679s-1.176.227-1.54.679c-.364.453-.546 1.095-.546 1.925 0 .84.18 1.484.539 1.932.359.448.875.672 1.547.672.672 0 1.188-.221 1.547-.665.359-.443.539-1.089.539-1.939 0-.83-.182-1.472-.546-1.925zm-7.301 4.13c.21.229.525.357.945.385l.378.028c.327.028.49.178.49.448 0 .159-.058.278-.175.357-.117.08-.292.11-.525.091l-.378-.028c-.747-.056-1.297-.28-1.652-.672s-.532-.984-.532-1.778v-3.514h-.938c-.159 0-.282-.039-.371-.119a.4.4 0 0 1-.133-.315.44.44 0 0 1 .133-.336.518.518 0 0 1 .371-.126h.938v-1.582c0-.177.051-.315.154-.413a.584.584 0 0 1 .42-.147c.168 0 .303.049.406.147.103.098.154.236.154.413v1.582h1.554c.149 0 .268.042.357.126a.44.44 0 0 1 .133.336.4.4 0 0 1-.133.315.514.514 0 0 1-.357.119h-1.554v3.57c0 .514.105.885.315 1.113zm-10.535.371c.495 0 .938-.074 1.33-.224.392-.149.826-.41 1.302-.784.159-.102.294-.154.406-.154.103 0 .192.047.266.14.075.094.112.21.112.35a.65.65 0 0 1-.224.49c-.41.374-.893.661-1.449.861a5.16 5.16 0 0 1-1.771.301c-.933 0-1.74-.203-2.422-.609-.681-.406-1.206-.989-1.575-1.75-.368-.76-.553-1.659-.553-2.695 0-1.026.185-1.92.553-2.681.369-.76.894-1.344 1.575-1.75.682-.406 1.489-.609 2.422-.609.626 0 1.216.101 1.771.301a4.298 4.298 0 0 1 1.449.861.65.65 0 0 1 .224.49.547.547 0 0 1-.112.343c-.074.098-.163.147-.266.147-.112 0-.247-.051-.406-.154-.476-.373-.907-.634-1.295-.784a3.706 3.706 0 0 0-1.337-.224c-1.082 0-1.915.353-2.499 1.057-.583.705-.875 1.706-.875 3.003 0 1.307.292 2.313.875 3.017.584.705 1.417 1.057 2.499 1.057zm-5.418-8.022h-3.01v8.372c0 .178-.051.32-.154.427a.55.55 0 0 1-.42.161.576.576 0 0 1-.427-.161.577.577 0 0 1-.161-.427v-8.372h-3.01c-.168 0-.298-.042-.392-.126-.093-.084-.14-.205-.14-.364 0-.158.047-.28.14-.364.094-.084.224-.126.392-.126h7.182c.168 0 .299.042.392.126.094.084.14.206.14.364 0 .159-.046.28-.14.364-.093.084-.224.126-.392.126zm-8.707 7.938c.168 0 .298.04.392.119.093.08.14.199.14.357 0 .15-.047.266-.14.35-.094.084-.224.126-.392.126h-5.236a.589.589 0 0 1-.427-.154.533.533 0 0 1-.161-.406v-8.75c0-.168.053-.303.161-.406a.593.593 0 0 1 .427-.154h5.236c.168 0 .298.042.392.126.093.084.14.201.14.35 0 .15-.047.266-.14.35-.094.084-.224.126-.392.126h-4.69v3.43h4.41c.168 0 .298.042.392.126.093.084.14.201.14.35 0 .15-.047.266-.14.35-.094.084-.224.126-.392.126h-4.41v3.584h4.69zm135.448-6.006c.168 0 .304.049.406.147.103.098.154.236.154.413v5.908c0 .187-.051.327-.154.42a.576.576 0 0 1-.406.14.59.59 0 0 1-.413-.147.531.531 0 0 1-.161-.413v-5.908c0-.177.054-.315.161-.413a.59.59 0 0 1 .413-.147z"/>
</svg>
