<svg width="220" height="105" viewBox="0 0 220 105" fill="none" xmlns="http://www.w3.org/2000/svg">
<mask id="path-1-inside-1" fill="white">
<path fill-rule="evenodd" clip-rule="evenodd" d="M112.828 1.85788C111.266 0.295785 108.734 0.295786 107.172 1.85788L100.029 9.00001H4C1.79086 9.00001 0 10.7909 0 13V101C0 103.209 1.79086 105 4 105H216C218.209 105 220 103.209 220 101V13C220 10.7909 218.209 9.00001 216 9.00001H119.971L112.828 1.85788Z"/>
</mask>
<path fill-rule="evenodd" clip-rule="evenodd" d="M112.828 1.85788C111.266 0.295785 108.734 0.295786 107.172 1.85788L100.029 9.00001H4C1.79086 9.00001 0 10.7909 0 13V101C0 103.209 1.79086 105 4 105H216C218.209 105 220 103.209 220 101V13C220 10.7909 218.209 9.00001 216 9.00001H119.971L112.828 1.85788Z" fill="white"/>
<path d="M107.172 1.85788L106.464 1.15077V1.15078L107.172 1.85788ZM112.828 1.85788L113.536 1.15078V1.15077L112.828 1.85788ZM100.029 9.00001V10H100.444L100.737 9.70711L100.029 9.00001ZM119.971 9.00001L119.263 9.70711L119.556 10H119.971V9.00001ZM107.879 2.56499C109.05 1.39342 110.95 1.39342 112.121 2.56499L113.536 1.15077C111.583 -0.801845 108.417 -0.801845 106.464 1.15077L107.879 2.56499ZM100.737 9.70711L107.879 2.56499L106.464 1.15078L99.3223 8.2929L100.737 9.70711ZM4 10H100.029V8.00001H4V10ZM1 13C1 11.3432 2.34315 10 4 10V8.00001C1.23858 8.00001 -1 10.2386 -1 13H1ZM1 101V13H-1V101H1ZM4 104C2.34314 104 1 102.657 1 101H-1C-1 103.761 1.23857 106 4 106V104ZM216 104H4V106H216V104ZM219 101C219 102.657 217.657 104 216 104V106C218.761 106 221 103.761 221 101H219ZM219 13V101H221V13H219ZM216 10C217.657 10 219 11.3432 219 13H221C221 10.2386 218.761 8.00001 216 8.00001V10ZM119.971 10H216V8.00001H119.971V10ZM112.121 2.56499L119.263 9.70711L120.678 8.2929L113.536 1.15078L112.121 2.56499Z" fill="#E6ECF1" mask="url(#path-1-inside-1)"/>
</svg>
