<svg width="17" height="16" viewBox="0 0 17 16" fill="none" xmlns="http://www.w3.org/2000/svg">
<path fill-rule="evenodd" clip-rule="evenodd" d="M11.4327 15.9992C12.9278 15.987 14.1907 15.4994 15.0852 14.589C15.9786 13.6812 16.4595 12.3866 16.4756 10.8465C16.4756 10.8465 16.4687 10.2266 16.4673 9.98317C16.4623 8.7935 16.4585 7.93366 15.8663 7.17754C15.1958 6.32121 14.1609 6.17608 13.3222 6.1515C13.4636 5.55315 13.5041 4.88996 13.4389 4.17292C13.4214 1.78538 11.6236 0.0692314 9.12867 0.000875525L9.09314 -6.10352e-05L5.23601 0.00274812C3.75181 0.00274812 2.57884 0.440741 1.7491 1.30432C1.23557 1.83852 0.553398 2.77163 0.481154 4.28037L0.478075 10.3647C0.473774 10.4319 0.475974 10.4996 0.478202 10.5681C0.479777 10.6166 0.481367 10.6655 0.48068 10.7149C0.48068 12.4456 0.76113 13.6912 1.63611 14.6124C2.51086 15.5331 3.80415 15.9999 5.47975 15.9999C5.51599 15.9999 5.5527 15.9997 5.58942 15.9992H11.4327ZM8.82528 5.9935L5.54278 5.99491C4.77439 5.98274 4.16114 5.35723 4.17322 4.59806C4.18554 3.83889 4.81679 3.23773 5.58637 3.24499L8.84707 3.24125C9.61547 3.25318 10.2285 3.93347 10.2164 4.69287C10.2038 5.44478 9.58349 5.9935 8.82528 5.9935ZM5.1948 9.54604H11.7155C12.4839 9.54604 13.1071 10.1619 13.1071 10.9214C13.1071 11.6808 12.4839 12.2962 11.7155 12.2962H5.1948C4.4264 12.2962 3.80321 11.6808 3.80321 10.9214C3.80321 10.1619 4.4264 9.54604 5.1948 9.54604Z" fill="#ADB5CC"/>
</svg>
