<svg width="20" height="20" viewBox="0 0 20 20" fill="none" xmlns="http://www.w3.org/2000/svg">
<path d="M9.71346 0.666626C4.55681 0.666626 0.380157 4.95176 0.380157 10.2368C0.380157 14.4659 3.05415 18.0523 6.7618 19.3167C7.22847 19.4068 7.39958 19.1106 7.39958 18.8566C7.39958 18.6293 7.3918 18.0271 7.38791 17.2293C4.7917 17.8064 4.24414 15.9454 4.24414 15.9454C3.81948 14.8409 3.20581 14.5454 3.20581 14.5454C2.36037 13.9522 3.27115 13.9644 3.27115 13.9644C4.20837 14.0309 4.7007 14.9504 4.7007 14.9504C5.53292 16.4137 6.88547 15.9909 7.41902 15.7466C7.50302 15.1273 7.74335 14.7061 8.01013 14.4667C5.93736 14.2273 3.75881 13.4044 3.75881 9.73765C3.75881 8.69315 4.12048 7.83936 4.71936 7.16981C4.61437 6.92796 4.29937 5.95488 4.80103 4.63687C4.80103 4.63687 5.5827 4.38041 7.36769 5.61807C8.11435 5.40544 8.90768 5.29993 9.70101 5.29506C10.4943 5.29993 11.2877 5.40544 12.0343 5.61807C13.8077 4.38041 14.5893 4.63687 14.5893 4.63687C15.091 5.95488 14.776 6.92796 14.6827 7.16981C15.2777 7.83936 15.6393 8.69315 15.6393 9.73765C15.6393 13.4141 13.4577 14.2232 11.381 14.4586C11.7077 14.7459 12.011 15.3327 12.011 16.2295C12.011 17.5101 11.9993 18.5392 11.9993 18.8501C11.9993 19.1008 12.1627 19.4003 12.641 19.3045C16.3751 18.0482 19.0468 14.4594 19.0468 10.2368C19.0468 4.95176 14.8678 0.666626 9.71346 0.666626Z" fill="#ADB5CC"/>
</svg>
