<svg width="21" height="20" viewBox="0 0 21 20" fill="none" xmlns="http://www.w3.org/2000/svg">
<path d="M18.1986 7.81512C17.5669 7.81512 17.0111 8.07402 16.6019 8.47738C15.0978 7.44828 13.0695 6.78603 10.822 6.71542L11.9895 1.51636L15.7069 2.34094C15.7069 3.24018 16.4486 3.97467 17.3586 3.97467C18.2861 3.97467 19.0319 3.2207 19.0319 2.32065C19.0319 1.42059 18.2911 0.666626 17.3594 0.666626C16.7103 0.666626 16.1503 1.05376 15.8711 1.58291L11.7653 0.683669C11.5586 0.629293 11.3561 0.775379 11.3011 0.9799L10.0195 6.71136C7.78949 6.80307 5.78283 7.46452 4.27367 8.49443C3.86451 8.07402 3.28701 7.81512 2.65534 7.81512C0.312023 7.81512 -0.455473 10.9227 1.69035 11.9851C1.61452 12.3138 1.58035 12.6644 1.58035 13.0142C1.58035 16.5048 5.5595 19.3332 10.4453 19.3332C15.3519 19.3332 19.3311 16.5048 19.3311 13.0142C19.3311 12.6644 19.2936 12.2975 19.2011 11.968C21.3036 10.9016 20.5294 7.81675 18.1986 7.81512ZM5.09533 12.2058C5.09533 11.2895 5.837 10.5518 6.76866 10.5518C7.67865 10.5518 8.42115 11.2847 8.42115 12.2058C8.42115 13.1059 7.67949 13.8396 6.76866 13.8396C5.84116 13.8436 5.09533 13.1059 5.09533 12.2058ZM14.1278 16.0998C12.5936 17.6159 8.26448 17.6159 6.72949 16.0998C6.56033 15.9538 6.56033 15.6957 6.72949 15.5293C6.87699 15.3832 7.13865 15.3832 7.28615 15.5293C8.45782 16.7167 12.3445 16.7369 13.567 15.5293C13.7145 15.3832 13.9761 15.3832 14.1236 15.5293C14.2961 15.6965 14.2961 15.9546 14.1278 16.0998ZM14.0936 13.8428C13.1836 13.8428 12.442 13.1099 12.442 12.2107C12.442 11.2944 13.1836 10.5567 14.0936 10.5567C15.0211 10.5567 15.7669 11.2895 15.7669 12.2107C15.7628 13.1059 15.0211 13.8428 14.0936 13.8428Z" fill="#ADB5CC"/>
</svg>
