<svg width="18" height="14" viewBox="0 0 18 14" fill="none" xmlns="http://www.w3.org/2000/svg">
<path d="M17.3332 1.91189C16.6887 2.17958 16.0018 2.35702 15.2858 2.44317C16.0224 2.02676 16.5847 1.37241 16.849 0.583691C16.1622 0.971382 15.4038 1.24523 14.5957 1.39805C13.9435 0.740613 13.014 0.333435 12 0.333435C10.0327 0.333435 8.44886 1.84522 8.44886 3.69855C8.44886 3.96522 8.47269 4.22163 8.53119 4.46573C5.57695 4.32932 2.96288 2.98881 1.2068 0.946766C0.900216 1.45035 0.720384 2.02676 0.720384 2.64727C0.720384 3.8124 1.35413 4.84521 2.29879 5.44316C1.72788 5.4329 1.1678 5.27598 0.6933 5.0288C0.6933 5.03906 0.6933 5.05239 0.6933 5.06573C0.6933 6.70059 1.92505 8.05854 3.54029 8.37136C3.25104 8.44623 2.93579 8.48212 2.60863 8.48212C2.38113 8.48212 2.15146 8.46982 1.93588 8.42469C2.39629 9.75699 3.70279 10.7365 5.25629 10.7683C4.04729 11.6637 2.51221 12.2031 0.850383 12.2031C0.558968 12.2031 0.279469 12.1908 -3.05176e-05 12.157C1.57405 13.118 3.43954 13.6667 5.45128 13.6667C11.9903 13.6667 15.5653 8.53854 15.5653 4.09342C15.5653 3.9447 15.5598 3.80112 15.5522 3.65855C16.2575 3.18471 16.8501 2.59291 17.3332 1.91189Z" fill="#ADB5CC"/>
</svg>
