<svg width="127" height="89" viewBox="0 0 127 89" fill="none" xmlns="http://www.w3.org/2000/svg">
<mask id="path-1-inside-1" fill="white">
<path fill-rule="evenodd" clip-rule="evenodd" d="M65.8284 1.17157C64.2663 -0.390524 61.7337 -0.390524 60.1716 1.17157L53.3431 8.00001H4C1.79086 8.00001 0 9.79086 0 12V85C0 87.2091 1.79086 89 4 89H123C125.209 89 127 87.2092 127 85V12C127 9.79087 125.209 8.00001 123 8.00001H72.6569L65.8284 1.17157Z"/>
</mask>
<path fill-rule="evenodd" clip-rule="evenodd" d="M65.8284 1.17157C64.2663 -0.390524 61.7337 -0.390524 60.1716 1.17157L53.3431 8.00001H4C1.79086 8.00001 0 9.79086 0 12V85C0 87.2091 1.79086 89 4 89H123C125.209 89 127 87.2092 127 85V12C127 9.79087 125.209 8.00001 123 8.00001H72.6569L65.8284 1.17157Z" fill="white"/>
<path d="M60.1716 1.17157L60.8787 1.87868V1.87868L60.1716 1.17157ZM65.8284 1.17157L66.5355 0.464466V0.464465L65.8284 1.17157ZM53.3431 8.00001V9.00001H53.7574L54.0502 8.70711L53.3431 8.00001ZM72.6569 8.00001L71.9498 8.70711L72.2426 9.00001H72.6569V8.00001ZM60.8787 1.87868C62.0503 0.707108 63.9497 0.707105 65.1213 1.87868L66.5355 0.464465C64.5829 -1.48815 61.4171 -1.48816 59.4645 0.464467L60.8787 1.87868ZM54.0502 8.70711L60.8787 1.87868L59.4645 0.464466L52.636 7.2929L54.0502 8.70711ZM4 9.00001H53.3431V7.00001H4V9.00001ZM1 12C1 10.3431 2.34314 9.00001 4 9.00001V7.00001C1.23858 7.00001 -1 9.23858 -1 12H1ZM1 85V12H-1V85H1ZM4 88C2.34314 88 1 86.6569 1 85H-1C-1 87.7614 1.23857 90 4 90V88ZM123 88H4V90H123V88ZM126 85C126 86.6569 124.657 88 123 88V90C125.761 90 128 87.7614 128 85H126ZM126 12V85H128V12H126ZM123 9.00001C124.657 9.00001 126 10.3432 126 12H128C128 9.23858 125.761 7.00001 123 7.00001V9.00001ZM72.6569 9.00001H123V7.00001H72.6569V9.00001ZM65.1213 1.87868L71.9498 8.70711L73.364 7.2929L66.5355 0.464466L65.1213 1.87868Z" fill="#E6ECF1" mask="url(#path-1-inside-1)"/>
</svg>
