<svg xmlns="http://www.w3.org/2000/svg" width="34" height="8">
    <path fill="#5c34a2" fill-rule="evenodd" d="M3.781 6.375h-.344v1.031a.333.333 0 0 1-.312.337v.007H.469v-.007c-.006.001-.01.007-.016.007a.336.336 0 0 1-.328-.344V1.219c0-.19.147-.344.328-.344.006 0 .01.006.016.007V.875h3.312c1.467 0 2.656 1.231 2.656 2.75s-1.189 2.75-2.656 2.75zM10.422.875c1.838 0 3.328 1.539 3.328 3.437 0 1.899-1.49 3.438-3.328 3.438-1.838 0-3.328-1.539-3.328-3.438 0-1.898 1.49-3.437 3.328-3.437zM21.369 7.532a.209.209 0 0 1-.205.212h-7.542c-.005.001-.008.006-.013.006-.112 0-.203-.098-.203-.219 0-.042.023-.076.042-.109l-.008-.017 3.739-6.363h.017c.021-.094.091-.17.188-.17.098 0 .167.076.189.17h.017l3.779 6.405-.021.032c.005.019.021.032.021.053zM33.562 7.75h-4.374a.313.313 0 0 1-.313-.313V1.188c0-.173.14-.313.313-.313h4.374c.173 0 .313.14.313.313v6.249c0 .173-.14.313-.313.313zM29.5 1.5v5.625h3.75V1.5H29.5zm-2.188 5.625a.313.313 0 1 1 0 .625h-4.374a.313.313 0 0 1-.313-.313V4.312c0-.172.14-.312.313-.312H27V1.5h-4.062a.313.313 0 1 1 0-.625h4.374c.173 0 .313.14.313.313v3.124c0 .173-.14.313-.313.313H23.25v2.5h4.062z"/>
</svg>
