<svg width="118" height="30" viewBox="0 0 118 30" fill="none" xmlns="http://www.w3.org/2000/svg">
<path d="M25.903 7.37239L13.2133 0.0472809C13.1037 -0.0157603 12.9714 -0.0157603 12.8644 0.0472809L8.60036 2.50821C8.49335 2.57125 8.42589 2.68757 8.42589 2.81086V7.07044L4.78741 4.97194C4.6804 4.9089 4.54804 4.9089 4.43847 4.97194L0.178192 7.43101C0.177494 7.43148 0.17633 7.43148 0.175633 7.43194C0.165164 7.43799 0.15702 7.44683 0.14725 7.45381C0.0572246 7.51778 0 7.62153 0 7.73319C0 7.73575 0.000931634 7.73808 0.00116426 7.74087V12.6569C0.00116426 12.7814 0.0674606 12.8968 0.175398 12.9591L3.81318 15.0604L3.81295 15.0609L0.174468 17.1612C0.0674611 17.224 0 17.3403 0 17.4639C0 17.4667 0.000931634 17.4688 0.00116426 17.4715V22.3839C0.00116426 22.5088 0.0674606 22.6237 0.175398 22.6861L4.43592 25.1477C4.43685 25.1482 4.43754 25.1491 4.43847 25.1496C4.46523 25.1649 4.49384 25.1763 4.52338 25.1844C4.54176 25.1891 4.56083 25.1898 4.57968 25.1917C4.59084 25.1926 4.60178 25.1963 4.61294 25.1963C4.61318 25.1963 4.61318 25.1963 4.61318 25.1963C4.61341 25.1963 4.61341 25.1963 4.61364 25.1963C4.67389 25.1963 4.73414 25.1805 4.78811 25.1496C4.78834 25.1496 4.78834 25.1491 4.78858 25.1491L8.42589 23.0513V27.1922C8.42589 27.3272 8.50498 27.4458 8.61897 27.5039L12.8644 29.9532C12.9176 29.986 12.9781 30 13.0388 30C13.0993 30 13.1598 29.9858 13.2133 29.9532L17.4445 27.5107C17.5657 27.4549 17.6515 27.3339 17.6515 27.1922V22.9908L21.29 25.0912C21.397 25.1516 21.532 25.1516 21.639 25.0912L25.903 22.6277C26.01 22.5649 26.0774 22.4485 26.0774 22.3255V7.6748C26.0774 7.54919 26.01 7.4352 25.903 7.37239ZM13.0388 0.752133L25.0281 7.6748L21.8134 9.52882L21.4645 9.7312L17.6401 7.52592V7.5236L17.2144 7.27934L9.47293 2.81063L13.0388 0.752133ZM4.61294 5.67679L8.42589 7.87719V11.9923L4.82603 9.9166C4.81393 9.90753 4.8016 9.89892 4.78811 9.89148L1.0496 7.73319L4.61294 5.67679ZM0.699038 12.4555V8.33825L4.40149 10.4742C4.41312 10.4833 4.42568 10.4914 4.43847 10.4989C4.43871 10.4991 4.43894 10.4991 4.43917 10.4993L8.07649 12.5974L4.51106 14.6577L0.699038 12.4555ZM4.52454 15.4561C4.61294 15.4819 4.70599 15.468 4.78741 15.4212C4.86906 15.3749 4.92722 15.3002 4.95025 15.2123L8.42589 13.2027V17.3194L4.61132 19.5226L1.04704 17.4639L4.52454 15.4561ZM0.699038 18.0694L4.26401 20.1277V24.2425L0.699038 22.1827V18.0694ZM4.96258 24.2421V20.1249L8.42589 18.1243V22.2438L4.96258 24.2421ZM9.12376 22.6465V12.5995C9.12376 12.5995 9.12376 12.5995 9.12376 12.5971V7.47451L9.18192 7.50708C9.16773 7.4794 9.14702 7.45125 9.12376 7.42799V3.41522L17.0397 7.98419L17.0886 8.01188L17.1005 8.01908L17.1237 8.03281L21.1156 10.3358V24.1842L17.6401 22.1787C17.6378 22.172 17.6334 22.1668 17.6308 22.1601L17.2379 21.9298C17.2286 21.9321 17.2193 21.9298 17.2123 21.9321L13.3882 19.7222L13.2138 19.6222C13.1065 19.5593 12.9718 19.5593 12.8648 19.6222C12.7576 19.685 12.6904 19.799 12.6904 19.9248V29.0481L9.12423 26.9894V22.6465H9.12376ZM16.9537 26.9896L13.3878 29.0483V20.5299L16.9537 22.5886V26.9896ZM25.3796 22.1231L21.8134 24.1844V10.336L25.3796 8.27963V22.1231Z" fill="url(#paint0_linear)"/>
<path d="M12.7362 15.1769C12.7525 15.2023 12.769 15.2258 12.792 15.2465C12.8037 15.2607 12.8176 15.2723 12.8316 15.2814C12.8409 15.2886 12.8525 15.2956 12.8644 15.3023C12.8667 15.3047 12.8667 15.3046 12.8667 15.3046L12.8827 15.3142C12.8876 15.3165 12.892 15.3188 12.8969 15.3209C12.9016 15.3233 12.9039 15.3233 12.9062 15.3258L13.3878 15.6047L17.1281 17.7633C17.1816 17.7937 17.2421 17.81 17.3026 17.81C17.3633 17.81 17.4238 17.7937 17.4771 17.7633C17.5841 17.7004 17.6515 17.5865 17.6515 17.4611V12.5387C17.6515 12.4829 17.6376 12.4271 17.6097 12.3734C17.6097 12.371 17.6073 12.3666 17.605 12.3643C17.5722 12.3084 17.5257 12.2643 17.4745 12.2361L13.2131 9.77726C13.1572 9.74493 13.0942 9.72864 13.0337 9.73097C12.9756 9.73097 12.9151 9.74725 12.8641 9.77726C12.7546 9.83798 12.6897 9.95428 12.6897 10.0776V15.0022C12.6897 15.0348 12.6943 15.0695 12.7057 15.1023C12.7132 15.1279 12.7225 15.1539 12.7362 15.1769ZM16.9537 16.8567L13.7367 15.0004L16.9537 13.144V16.8567ZM16.5536 12.569L13.3878 14.3976V10.7406L16.5536 12.569Z" fill="url(#paint1_linear)"/>
<path d="M43.1186 14.4586C43.1186 16.9547 41.3097 18.4623 38.3279 18.4623H35.1789V22.1638H33.9392V10.4386H38.3279C41.3095 10.4386 43.1186 11.9463 43.1186 14.4586ZM41.8792 14.4586C41.8792 12.5827 40.6395 11.5108 38.2944 11.5108H35.1789V17.3732H38.2944C40.6395 17.3734 41.8792 16.3015 41.8792 14.4586Z" fill="#051441"/>
<path d="M53.6534 13.3534V22.1641H52.5145V20.5562C51.8948 21.6279 50.7556 22.248 49.3487 22.248C47.1044 22.248 45.6302 20.9919 45.6302 18.4625V13.3534H46.8194V18.3453C46.8194 20.2212 47.7911 21.1759 49.466 21.1759C51.3086 21.1759 52.4645 19.9869 52.4645 17.9764V13.3534H53.6534Z" fill="#051441"/>
<path d="M71.5248 17.0554V22.1641H70.3356V17.1726C70.3356 15.3135 69.3977 14.3584 67.8063 14.3584C65.9974 14.3584 64.8583 15.531 64.8583 17.5411V22.1641H63.6691V17.1726C63.6691 15.3135 62.7311 14.3584 61.123 14.3584C59.3309 14.3584 58.175 15.531 58.175 17.5411V22.1641H56.9858V13.3534H58.1247V14.9613C58.7444 13.9064 59.8836 13.2867 61.3573 13.2867C62.8147 13.2867 63.9536 13.9064 64.4898 15.1458C65.1262 14.0069 66.3826 13.2867 67.9738 13.2867C70.1177 13.2864 71.5248 14.5261 71.5248 17.0554Z" fill="#051441"/>
<path d="M82.8297 13.3534V22.1641H81.6907V20.4222C80.9705 21.6116 79.7476 22.2483 78.2905 22.2483C75.7779 22.2483 73.902 20.4222 73.902 17.7589C73.902 15.0955 75.7779 13.2867 78.2905 13.2867C79.6976 13.2867 80.9035 13.8896 81.6405 15.0285V13.3534H82.8297ZM81.6572 17.7586C81.6572 15.6987 80.2501 14.3246 78.391 14.3246C76.5148 14.3246 75.1079 15.6985 75.1079 17.7586C75.1079 19.819 76.5148 21.1926 78.391 21.1926C80.2501 21.1926 81.6572 19.819 81.6572 17.7586Z" fill="#051441"/>
<path d="M95.5756 14.4586C95.5756 16.9547 93.7667 18.4623 90.7849 18.4623H87.6359V22.1638H86.3965V10.4386H90.7849C93.7665 10.4386 95.5756 11.9463 95.5756 14.4586ZM94.336 14.4586C94.336 12.5827 93.0963 11.5108 90.7515 11.5108H87.6357V17.3732H90.7515C93.0963 17.3734 94.336 16.3015 94.336 14.4586Z" fill="#051441"/>
<path d="M105.993 13.3534V22.1641H104.854V20.4222C104.134 21.6116 102.911 22.2483 101.454 22.2483C98.9415 22.2483 97.0656 20.4222 97.0656 17.7589C97.0656 15.0955 98.9415 13.2867 101.454 13.2867C102.861 13.2867 104.067 13.8896 104.804 15.0285V13.3534H105.993ZM104.821 17.7586C104.821 15.6987 103.414 14.3246 101.555 14.3246C99.6784 14.3246 98.2715 15.6985 98.2715 17.7586C98.2715 19.819 99.6784 21.1926 101.555 21.1926C103.414 21.1926 104.821 19.819 104.821 17.7586Z" fill="#051441"/>
<path d="M117.249 13.3534V21.0924C117.249 24.1242 115.858 25.4978 113.145 25.4978C111.637 25.4978 110.146 25.0121 109.292 24.1411L109.895 23.2365C110.649 23.9902 111.805 24.4424 113.095 24.4424C115.138 24.4424 116.059 23.4205 116.059 21.2433V20.2214C115.439 21.2433 114.317 21.8293 112.944 21.8293C110.699 21.8293 109.225 20.5732 109.225 18.0438V13.3536H110.414V17.9266C110.414 19.8025 111.386 20.7572 113.061 20.7572C114.903 20.7572 116.059 19.5682 116.059 17.5581V13.3536H117.249V13.3534Z" fill="#051441"/>
<defs>
<linearGradient id="paint0_linear" x1="13.0387" y1="0" x2="13.0387" y2="30" gradientUnits="userSpaceOnUse">
<stop stop-color="#7023FF"/>
<stop offset="1" stop-color="#051441"/>
</linearGradient>
<linearGradient id="paint1_linear" x1="13.0387" y1="0" x2="13.0387" y2="30" gradientUnits="userSpaceOnUse">
<stop stop-color="#7023FF"/>
<stop offset="1" stop-color="#051441"/>
</linearGradient>
</defs>
</svg>
