<svg width="129" height="30" viewBox="0 0 129 30" fill="none" xmlns="http://www.w3.org/2000/svg">
<path d="M12 0H0V6H12V0Z" fill="#9EAAB6"/>
<path d="M30 0H18V6H30V0Z" fill="#9EAAB6"/>
<path d="M18 24H24V18H30V30H18V24Z" fill="#9EAAB6"/>
<path d="M12 24H6V18H0V30H12V24Z" fill="#9EAAB6"/>
<path d="M43.8887 12V2.04688H47.375C48.5827 2.04688 49.4987 2.2793 50.123 2.74414C50.7474 3.20443 51.0596 3.88118 51.0596 4.77441C51.0596 5.26204 50.9342 5.69271 50.6836 6.06641C50.4329 6.43555 50.0843 6.70671 49.6377 6.87988C50.1481 7.00749 50.5492 7.26497 50.8408 7.65234C51.137 8.03971 51.2852 8.51367 51.2852 9.07422C51.2852 10.0312 50.9798 10.7559 50.3691 11.248C49.7585 11.7402 48.888 11.9909 47.7578 12H43.8887ZM45.9395 7.66602V10.3525H47.6963C48.1794 10.3525 48.5553 10.2386 48.8242 10.0107C49.0977 9.77832 49.2344 9.45931 49.2344 9.05371C49.2344 8.14225 48.7627 7.67969 47.8193 7.66602H45.9395ZM45.9395 6.2168H47.457C48.4915 6.19857 49.0088 5.78613 49.0088 4.97949C49.0088 4.52832 48.8766 4.20475 48.6123 4.00879C48.3525 3.80827 47.9401 3.70801 47.375 3.70801H45.9395V6.2168Z" fill="#9EAAB6"/>
<path d="M56.8564 6.45605C56.5876 6.4196 56.3506 6.40137 56.1455 6.40137C55.3981 6.40137 54.9082 6.6543 54.6758 7.16016V12H52.7002V4.60352H54.5664L54.6211 5.48535C55.0176 4.80632 55.5667 4.4668 56.2686 4.4668C56.4873 4.4668 56.6924 4.49642 56.8838 4.55566L56.8564 6.45605Z" fill="#9EAAB6"/>
<path d="M59.8984 12H57.916V4.60352H59.8984V12ZM57.7998 2.68945C57.7998 2.39323 57.8978 2.14941 58.0938 1.95801C58.2943 1.7666 58.5654 1.6709 58.9072 1.6709C59.2445 1.6709 59.5133 1.7666 59.7139 1.95801C59.9144 2.14941 60.0146 2.39323 60.0146 2.68945C60.0146 2.99023 59.9121 3.23633 59.707 3.42773C59.5065 3.61914 59.2399 3.71484 58.9072 3.71484C58.5745 3.71484 58.3057 3.61914 58.1006 3.42773C57.9001 3.23633 57.7998 2.99023 57.7998 2.68945Z" fill="#9EAAB6"/>
<path d="M61.2246 8.24707C61.2246 7.09408 61.4821 6.17578 61.9971 5.49219C62.5166 4.80859 63.2253 4.4668 64.123 4.4668C64.8431 4.4668 65.4378 4.73568 65.9072 5.27344V1.5H67.8896V12H66.1055L66.0098 11.2139C65.5176 11.8291 64.8841 12.1367 64.1094 12.1367C63.2389 12.1367 62.5394 11.7949 62.0107 11.1113C61.4867 10.4232 61.2246 9.46842 61.2246 8.24707ZM63.2002 8.39062C63.2002 9.08333 63.321 9.61426 63.5625 9.9834C63.804 10.3525 64.1549 10.5371 64.6152 10.5371C65.2259 10.5371 65.6566 10.2796 65.9072 9.76465V6.8457C65.6611 6.33073 65.235 6.07324 64.6289 6.07324C63.6764 6.07324 63.2002 6.8457 63.2002 8.39062Z" fill="#9EAAB6"/>
<path d="M69.1338 8.24707C69.1338 7.1123 69.4027 6.19857 69.9404 5.50586C70.4827 4.81315 71.2119 4.4668 72.1279 4.4668C72.9391 4.4668 73.5703 4.74479 74.0215 5.30078L74.1035 4.60352H75.8945V11.7539C75.8945 12.401 75.7464 12.9639 75.4502 13.4424C75.1585 13.9209 74.7461 14.2855 74.2129 14.5361C73.6797 14.7868 73.0553 14.9121 72.3398 14.9121C71.7975 14.9121 71.2689 14.8027 70.7539 14.584C70.2389 14.3698 69.8493 14.0918 69.585 13.75L70.46 12.5469C70.9521 13.0983 71.5492 13.374 72.251 13.374C72.7751 13.374 73.1829 13.2327 73.4746 12.9502C73.7663 12.6722 73.9121 12.2757 73.9121 11.7607V11.3643C73.4564 11.8792 72.8571 12.1367 72.1143 12.1367C71.2256 12.1367 70.5055 11.7904 69.9541 11.0977C69.4072 10.4004 69.1338 9.47754 69.1338 8.3291V8.24707ZM71.1094 8.39062C71.1094 9.06055 71.2438 9.58691 71.5127 9.96973C71.7816 10.348 72.1507 10.5371 72.6201 10.5371C73.2217 10.5371 73.6523 10.3115 73.9121 9.86035V6.75C73.6478 6.29883 73.2217 6.07324 72.6338 6.07324C72.1598 6.07324 71.7861 6.26693 71.5127 6.6543C71.2438 7.04167 71.1094 7.62044 71.1094 8.39062Z" fill="#9EAAB6"/>
<path d="M80.8232 12.1367C79.7386 12.1367 78.8545 11.804 78.1709 11.1387C77.4919 10.4733 77.1523 9.58691 77.1523 8.47949V8.28809C77.1523 7.54525 77.2959 6.88216 77.583 6.29883C77.8701 5.71094 78.2757 5.25977 78.7998 4.94531C79.3284 4.6263 79.93 4.4668 80.6045 4.4668C81.6162 4.4668 82.4115 4.78581 82.9902 5.42383C83.5736 6.06185 83.8652 6.96647 83.8652 8.1377V8.94434H79.1553C79.2191 9.42741 79.4105 9.81478 79.7295 10.1064C80.0531 10.3981 80.4609 10.5439 80.9531 10.5439C81.7142 10.5439 82.3089 10.2682 82.7373 9.7168L83.708 10.8037C83.4118 11.223 83.0107 11.5511 82.5049 11.7881C81.999 12.0205 81.4385 12.1367 80.8232 12.1367ZM80.5977 6.06641C80.2057 6.06641 79.8867 6.19857 79.6406 6.46289C79.3991 6.72721 79.2441 7.10547 79.1758 7.59766H81.9238V7.44043C81.9147 7.00293 81.7962 6.66569 81.5684 6.42871C81.3405 6.18717 81.0169 6.06641 80.5977 6.06641Z" fill="#9EAAB6"/>
<path d="M96.1426 2.04688V8.60254C96.1426 9.69173 95.8008 10.5531 95.1172 11.1865C94.4382 11.82 93.5085 12.1367 92.3281 12.1367C91.166 12.1367 90.2432 11.8291 89.5596 11.2139C88.876 10.5986 88.5273 9.75325 88.5137 8.67773V2.04688H90.5645V8.61621C90.5645 9.2679 90.7194 9.74414 91.0293 10.0449C91.3438 10.3411 91.7767 10.4893 92.3281 10.4893C93.4811 10.4893 94.0667 9.88314 94.085 8.6709V2.04688H96.1426Z" fill="#9EAAB6"/>
<path d="M99.7793 12H97.7969V4.60352H99.7793V12ZM97.6807 2.68945C97.6807 2.39323 97.7786 2.14941 97.9746 1.95801C98.1751 1.7666 98.4463 1.6709 98.7881 1.6709C99.1253 1.6709 99.3942 1.7666 99.5947 1.95801C99.7952 2.14941 99.8955 2.39323 99.8955 2.68945C99.8955 2.99023 99.793 3.23633 99.5879 3.42773C99.3874 3.61914 99.1208 3.71484 98.7881 3.71484C98.4554 3.71484 98.1865 3.61914 97.9814 3.42773C97.7809 3.23633 97.6807 2.99023 97.6807 2.68945Z" fill="#9EAAB6"/>
<path d="M110.648 9.94922H107.053L106.369 12H104.188L107.894 2.04688H109.794L113.52 12H111.339L110.648 9.94922ZM107.606 8.28809H110.095L108.844 4.5625L107.606 8.28809Z" fill="#9EAAB6"/>
<path d="M120.649 8.37012C120.649 9.50944 120.39 10.4232 119.87 11.1113C119.355 11.7949 118.658 12.1367 117.778 12.1367C117.031 12.1367 116.427 11.877 115.967 11.3574V14.8438H113.991V4.60352H115.823L115.892 5.32812C116.37 4.75391 116.994 4.4668 117.765 4.4668C118.676 4.4668 119.385 4.80404 119.891 5.47852C120.396 6.15299 120.649 7.08268 120.649 8.26758V8.37012ZM118.674 8.22656C118.674 7.53841 118.551 7.00749 118.305 6.63379C118.063 6.26009 117.71 6.07324 117.245 6.07324C116.625 6.07324 116.199 6.31022 115.967 6.78418V9.8125C116.208 10.3001 116.639 10.5439 117.259 10.5439C118.202 10.5439 118.674 9.77148 118.674 8.22656Z" fill="#9EAAB6"/>
<path d="M128.538 8.37012C128.538 9.50944 128.278 10.4232 127.759 11.1113C127.244 11.7949 126.547 12.1367 125.667 12.1367C124.92 12.1367 124.316 11.877 123.855 11.3574V14.8438H121.88V4.60352H123.712L123.78 5.32812C124.259 4.75391 124.883 4.4668 125.653 4.4668C126.565 4.4668 127.273 4.80404 127.779 5.47852C128.285 6.15299 128.538 7.08268 128.538 8.26758V8.37012ZM126.562 8.22656C126.562 7.53841 126.439 7.00749 126.193 6.63379C125.952 6.26009 125.599 6.07324 125.134 6.07324C124.514 6.07324 124.088 6.31022 123.855 6.78418V9.8125C124.097 10.3001 124.528 10.5439 125.147 10.5439C126.091 10.5439 126.562 9.77148 126.562 8.22656Z" fill="#9EAAB6"/>
<path d="M45.4561 24.6455L46.6279 22.7168H47.6826L45.9541 25.3291L47.7363 28H46.6914L45.4707 26.0225L44.25 28H43.2002L44.9824 25.3291L43.2539 22.7168H44.2988L45.4561 24.6455Z" fill="#9EAAB6"/>
<path d="M48.7861 28V20.8906H50.793C51.4115 20.8906 51.9583 21.0273 52.4336 21.3008C52.9089 21.5742 53.2751 21.9632 53.5322 22.4678C53.7926 22.9723 53.9245 23.5518 53.9277 24.2061V24.6602C53.9277 25.3307 53.7975 25.9183 53.5371 26.4229C53.2799 26.9274 52.9105 27.3148 52.4287 27.585C51.9502 27.8551 51.3919 27.9935 50.7539 28H48.7861ZM49.7236 21.6621V27.2334H50.71C51.4326 27.2334 51.9941 27.0088 52.3945 26.5596C52.7982 26.1104 53 25.4707 53 24.6406V24.2256C53 23.4183 52.8096 22.7917 52.4287 22.3457C52.0511 21.8965 51.514 21.6686 50.8174 21.6621H49.7236Z" fill="#9EAAB6"/>
<path d="M58.4688 28C58.4167 27.8958 58.3743 27.7103 58.3418 27.4434C57.9219 27.8796 57.4206 28.0977 56.8379 28.0977C56.3171 28.0977 55.889 27.9512 55.5537 27.6582C55.2217 27.362 55.0557 26.9876 55.0557 26.5352C55.0557 25.985 55.264 25.5586 55.6807 25.2559C56.1006 24.9499 56.6898 24.7969 57.4482 24.7969H58.3271V24.3818C58.3271 24.0661 58.2327 23.8154 58.0439 23.6299C57.8551 23.4411 57.5768 23.3467 57.209 23.3467C56.8867 23.3467 56.6165 23.4281 56.3984 23.5908C56.1803 23.7536 56.0713 23.9505 56.0713 24.1816H55.1631C55.1631 23.918 55.2559 23.6641 55.4414 23.4199C55.6302 23.1725 55.8841 22.9772 56.2031 22.834C56.5254 22.6908 56.8786 22.6191 57.2627 22.6191C57.8714 22.6191 58.3483 22.7721 58.6934 23.0781C59.0384 23.3809 59.2174 23.7992 59.2305 24.333V26.7646C59.2305 27.2497 59.2923 27.6354 59.416 27.9219V28H58.4688ZM56.9697 27.3115C57.2529 27.3115 57.5215 27.2383 57.7754 27.0918C58.0293 26.9453 58.2132 26.7549 58.3271 26.5205V25.4365H57.6191C56.5124 25.4365 55.959 25.7604 55.959 26.4082C55.959 26.6914 56.0534 26.9128 56.2422 27.0723C56.431 27.2318 56.6735 27.3115 56.9697 27.3115Z" fill="#9EAAB6"/>
<path d="M61.6279 28H60.7246V22.7168H61.6279V28ZM60.6514 21.3154C60.6514 21.1689 60.6953 21.0452 60.7832 20.9443C60.8743 20.8434 61.0078 20.793 61.1836 20.793C61.3594 20.793 61.4928 20.8434 61.584 20.9443C61.6751 21.0452 61.7207 21.1689 61.7207 21.3154C61.7207 21.4619 61.6751 21.584 61.584 21.6816C61.4928 21.7793 61.3594 21.8281 61.1836 21.8281C61.0078 21.8281 60.8743 21.7793 60.7832 21.6816C60.6953 21.584 60.6514 21.4619 60.6514 21.3154Z" fill="#9EAAB6"/>
<path d="M67.7949 24.8311C66.9909 24.5999 66.4049 24.3167 66.0371 23.9814C65.6725 23.6429 65.4902 23.2262 65.4902 22.7314C65.4902 22.1715 65.7132 21.7093 66.1592 21.3447C66.6084 20.9769 67.1911 20.793 67.9072 20.793C68.3955 20.793 68.8301 20.8874 69.2109 21.0762C69.5951 21.265 69.8913 21.5254 70.0996 21.8574C70.3112 22.1895 70.417 22.5524 70.417 22.9463H69.4746C69.4746 22.5166 69.3379 22.1797 69.0645 21.9355C68.791 21.6882 68.4053 21.5645 67.9072 21.5645C67.445 21.5645 67.0837 21.667 66.8232 21.8721C66.5661 22.0739 66.4375 22.3555 66.4375 22.7168C66.4375 23.0065 66.5596 23.2523 66.8037 23.4541C67.0511 23.6527 67.4694 23.835 68.0586 24.001C68.651 24.167 69.1133 24.3509 69.4453 24.5527C69.7806 24.7513 70.028 24.984 70.1875 25.251C70.3503 25.5179 70.4316 25.832 70.4316 26.1934C70.4316 26.7695 70.207 27.2318 69.7578 27.5801C69.3086 27.9251 68.708 28.0977 67.9561 28.0977C67.4678 28.0977 67.012 28.0049 66.5889 27.8193C66.1657 27.6305 65.8385 27.3734 65.6074 27.0479C65.3796 26.7223 65.2656 26.3529 65.2656 25.9395H66.208C66.208 26.3691 66.3659 26.7093 66.6816 26.96C67.0007 27.2074 67.4255 27.3311 67.9561 27.3311C68.4508 27.3311 68.8301 27.2301 69.0938 27.0283C69.3574 26.8265 69.4893 26.5514 69.4893 26.2031C69.4893 25.8548 69.3672 25.5863 69.123 25.3975C68.8789 25.2054 68.4362 25.0166 67.7949 24.8311Z" fill="#9EAAB6"/>
<path d="M76.5498 21.6621H74.2646V28H73.332V21.6621H71.0518V20.8906H76.5498V21.6621Z" fill="#9EAAB6"/>
<path d="M81.1396 26.1445H78.1611L77.4922 28H76.5254L79.2402 20.8906H80.0605L82.7803 28H81.8184L81.1396 26.1445ZM78.4443 25.373H80.8613L79.6504 22.0479L78.4443 25.373Z" fill="#9EAAB6"/>
<path d="M85.5439 24.6943L84.6748 25.5977V28H83.7373V20.8906H84.6748V24.4062L87.834 20.8906H88.9668L86.1689 24.0303L89.1865 28H88.0635L85.5439 24.6943Z" fill="#9EAAB6"/>
<path d="M94.0254 24.7139H90.9443V27.2334H94.5234V28H90.0068V20.8906H94.4746V21.6621H90.9443V23.9473H94.0254V24.7139Z" fill="#9EAAB6"/>
</svg>
