<svg
    height="26"
    width="188"
    xmlns="http://www.w3.org/2000/svg"
>
    <defs>
        <style type="text/css">
            @import url('https://fonts.googleapis.com/css?family=Nunito:400');
            text {
                font-family: "Nunito", sans-serif;
            }
        </style>
    </defs>
    <path
        d="M8.938 17.812h-.813v2.376h-.003l.003.015c0 .44-.364.797-.812.797h-6.5A.805.805 0 0 1 0 20.203l.003-.015H0V5.812h.003L0 5.797C0 5.357.364 5 .813 5h8.125c3.589 0 6.499 2.868 6.499 6.406s-2.91 6.406-6.499 6.406zM25.188 5c4.487 0 8.125 3.582 8.125 8s-3.638 8-8.125 8c-4.488 0-8.126-3.582-8.126-8s3.638-8 8.126-8zM52 20.493a.498.498 0 0 1-.503.494H33.064c-.022.003-.041.013-.064.013a.5.5 0 0 1-.5-.5c0-.109.042-.204.101-.286l-.009-.017 9.151-14.809h.02a.493.493 0 0 1 .965 0h.021L52 20.296l-.032.043c.017.05.032.1.032.154z"
        fill-rule="evenodd"
        fill="#FFF"
    />
    <text
        fill="#fff"
        font-family="Nunito"
        font-size="14"
        font-weight="300"
        x="70"
        y="17"
    >Bridge&#32;UI&#32;App</text>
    <path
        d="M179 0a1 1 0 0 1 1 1v24a1 1 0 0 1-2 0V1a1 1 0 0 1 1-1z"
        fill-rule="evenodd"
        fill="#60DB97"
    />
</svg>
