<svg width="150" height="193" viewBox="0 0 150 193" fill="none" xmlns="http://www.w3.org/2000/svg">
<path d="M60 0H0V30H60V0Z" fill="white"/>
<path d="M150 0H90V30H150V0Z" fill="white"/>
<path d="M90 120H120V90H150V150H90V120Z" fill="white"/>
<path d="M60 120H30V90H0V150H60V120Z" fill="white"/>
<path d="M44.3535 188.353H48.708V190H42.3027V180.047H44.3535V188.353ZM49.4531 186.233C49.4531 185.5 49.5944 184.846 49.877 184.271C50.1595 183.697 50.5651 183.253 51.0938 182.938C51.627 182.624 52.2445 182.467 52.9463 182.467C53.9443 182.467 54.7578 182.772 55.3867 183.383C56.0202 183.993 56.3734 184.823 56.4463 185.871L56.46 186.377C56.46 187.512 56.1432 188.423 55.5098 189.111C54.8763 189.795 54.0264 190.137 52.96 190.137C51.8936 190.137 51.0413 189.795 50.4033 189.111C49.7699 188.428 49.4531 187.498 49.4531 186.322V186.233ZM51.4287 186.377C51.4287 187.079 51.5609 187.617 51.8252 187.99C52.0895 188.359 52.4678 188.544 52.96 188.544C53.4385 188.544 53.8122 188.362 54.0811 187.997C54.3499 187.628 54.4844 187.04 54.4844 186.233C54.4844 185.545 54.3499 185.012 54.0811 184.634C53.8122 184.256 53.4339 184.066 52.9463 184.066C52.4632 184.066 52.0895 184.256 51.8252 184.634C51.5609 185.007 51.4287 185.589 51.4287 186.377ZM61.9629 190C61.8717 189.822 61.8057 189.601 61.7646 189.337C61.2861 189.87 60.6641 190.137 59.8984 190.137C59.1738 190.137 58.5723 189.927 58.0938 189.508C57.6198 189.089 57.3828 188.56 57.3828 187.922C57.3828 187.138 57.6722 186.536 58.251 186.117C58.8343 185.698 59.6751 185.486 60.7734 185.481H61.6826V185.058C61.6826 184.716 61.5938 184.442 61.416 184.237C61.2428 184.032 60.9671 183.93 60.5889 183.93C60.2562 183.93 59.9941 184.009 59.8027 184.169C59.6159 184.328 59.5225 184.547 59.5225 184.825H57.5469C57.5469 184.397 57.679 184 57.9434 183.636C58.2077 183.271 58.5814 182.986 59.0645 182.781C59.5475 182.572 60.0898 182.467 60.6914 182.467C61.6029 182.467 62.3252 182.697 62.8584 183.157C63.3962 183.613 63.665 184.256 63.665 185.085V188.291C63.6696 188.993 63.7676 189.524 63.959 189.884V190H61.9629ZM60.3291 188.626C60.6208 188.626 60.8896 188.562 61.1357 188.435C61.3818 188.302 61.5641 188.127 61.6826 187.908V186.637H60.9443C59.9554 186.637 59.429 186.979 59.3652 187.662L59.3584 187.778C59.3584 188.024 59.445 188.227 59.6182 188.387C59.7913 188.546 60.0283 188.626 60.3291 188.626ZM64.875 186.247C64.875 185.094 65.1325 184.176 65.6475 183.492C66.167 182.809 66.8757 182.467 67.7734 182.467C68.4935 182.467 69.0882 182.736 69.5576 183.273V179.5H71.54V190H69.7559L69.6602 189.214C69.168 189.829 68.5345 190.137 67.7598 190.137C66.8893 190.137 66.1898 189.795 65.6611 189.111C65.137 188.423 64.875 187.468 64.875 186.247ZM66.8506 186.391C66.8506 187.083 66.9714 187.614 67.2129 187.983C67.4544 188.353 67.8053 188.537 68.2656 188.537C68.8763 188.537 69.307 188.28 69.5576 187.765V184.846C69.3115 184.331 68.8854 184.073 68.2793 184.073C67.3268 184.073 66.8506 184.846 66.8506 186.391ZM75.1562 190H73.1738V182.604H75.1562V190ZM73.0576 180.689C73.0576 180.393 73.1556 180.149 73.3516 179.958C73.5521 179.767 73.8232 179.671 74.165 179.671C74.5023 179.671 74.7712 179.767 74.9717 179.958C75.1722 180.149 75.2725 180.393 75.2725 180.689C75.2725 180.99 75.1699 181.236 74.9648 181.428C74.7643 181.619 74.4977 181.715 74.165 181.715C73.8324 181.715 73.5635 181.619 73.3584 181.428C73.1579 181.236 73.0576 180.99 73.0576 180.689ZM78.6084 182.604L78.6699 183.458C79.1986 182.797 79.9072 182.467 80.7959 182.467C81.5798 182.467 82.1631 182.697 82.5459 183.157C82.9287 183.618 83.1247 184.306 83.1338 185.222V190H81.1582V185.27C81.1582 184.85 81.0671 184.547 80.8848 184.36C80.7025 184.169 80.3994 184.073 79.9756 184.073C79.4196 184.073 79.0026 184.31 78.7246 184.784V190H76.749V182.604H78.6084ZM84.3506 186.247C84.3506 185.112 84.6195 184.199 85.1572 183.506C85.6995 182.813 86.4287 182.467 87.3447 182.467C88.1559 182.467 88.7871 182.745 89.2383 183.301L89.3203 182.604H91.1113V189.754C91.1113 190.401 90.9632 190.964 90.667 191.442C90.3753 191.921 89.9629 192.285 89.4297 192.536C88.8965 192.787 88.2721 192.912 87.5566 192.912C87.0143 192.912 86.4857 192.803 85.9707 192.584C85.4557 192.37 85.0661 192.092 84.8018 191.75L85.6768 190.547C86.1689 191.098 86.766 191.374 87.4678 191.374C87.9919 191.374 88.3997 191.233 88.6914 190.95C88.9831 190.672 89.1289 190.276 89.1289 189.761V189.364C88.6732 189.879 88.0739 190.137 87.3311 190.137C86.4424 190.137 85.7223 189.79 85.1709 189.098C84.624 188.4 84.3506 187.478 84.3506 186.329V186.247ZM86.3262 186.391C86.3262 187.061 86.4606 187.587 86.7295 187.97C86.9984 188.348 87.3675 188.537 87.8369 188.537C88.4385 188.537 88.8691 188.312 89.1289 187.86V184.75C88.8646 184.299 88.4385 184.073 87.8506 184.073C87.3766 184.073 87.0029 184.267 86.7295 184.654C86.4606 185.042 86.3262 185.62 86.3262 186.391ZM96.2246 189.029C96.2246 188.715 96.3294 188.46 96.5391 188.264C96.7533 188.068 97.0199 187.97 97.3389 187.97C97.6624 187.97 97.929 188.068 98.1387 188.264C98.3529 188.46 98.46 188.715 98.46 189.029C98.46 189.339 98.3551 189.592 98.1455 189.788C97.9359 189.979 97.667 190.075 97.3389 190.075C97.0153 190.075 96.7487 189.979 96.5391 189.788C96.3294 189.592 96.2246 189.339 96.2246 189.029ZM100.299 189.029C100.299 188.715 100.404 188.46 100.613 188.264C100.827 188.068 101.094 187.97 101.413 187.97C101.737 187.97 102.003 188.068 102.213 188.264C102.427 188.46 102.534 188.715 102.534 189.029C102.534 189.339 102.429 189.592 102.22 189.788C102.01 189.979 101.741 190.075 101.413 190.075C101.09 190.075 100.823 189.979 100.613 189.788C100.404 189.592 100.299 189.339 100.299 189.029ZM104.373 189.029C104.373 188.715 104.478 188.46 104.688 188.264C104.902 188.068 105.168 187.97 105.487 187.97C105.811 187.97 106.077 188.068 106.287 188.264C106.501 188.46 106.608 188.715 106.608 189.029C106.608 189.339 106.504 189.592 106.294 189.788C106.084 189.979 105.815 190.075 105.487 190.075C105.164 190.075 104.897 189.979 104.688 189.788C104.478 189.592 104.373 189.339 104.373 189.029Z" fill="white"/>
</svg>
